<svg width="417" height="146" viewBox="0 0 417 146" fill="none" xmlns="http://www.w3.org/2000/svg">
<path d="M22.784 105.168C22.784 110.928 19.968 115.024 16 115.024C13.696 115.024 11.392 113.488 10.24 110.032L9.856 114H2.944V28.752H10.24V56.784C11.264 53.712 13.568 51.792 16 51.792C19.968 51.792 22.784 55.888 22.784 61.776V105.168ZM15.488 103.248V63.696C15.488 61.52 14.464 59.984 12.8 59.984C11.264 59.984 10.24 61.52 10.24 63.696V103.248C10.24 105.424 11.264 106.96 12.8 106.96C14.464 106.96 15.488 105.424 15.488 103.248ZM33.951 45.52H27.423V35.536H33.951V45.52ZM34.335 114H27.039V52.56H34.335V114ZM45.921 45.52H39.393V35.536H45.921V45.52ZM46.305 114H39.009V52.56H46.305V114ZM57.891 45.52H51.363V35.536H57.891V45.52ZM58.275 114H50.979V52.56H58.275V114ZM85.093 50.896C85.093 55.12 83.685 57.04 81.253 57.04C80.613 57.04 79.973 56.784 79.333 56.528C81.381 59.216 82.149 62.288 82.149 65.872V80.464C82.149 88.528 77.797 94.672 72.421 94.672C72.037 94.672 71.269 94.544 71.141 94.416C69.733 94.416 68.709 96.336 68.709 98.64C68.709 101.072 69.861 102.992 72.549 102.992C78.949 102.992 83.045 107.088 83.045 115.152V123.856C83.045 133.328 78.821 137.296 72.421 137.296C66.277 137.296 62.309 132.944 62.309 123.856V116.176C62.309 112.464 63.717 109.904 65.637 108.24C63.717 107.216 61.925 104.016 61.925 100.944C61.925 96.848 64.357 93.264 67.557 92.752C63.717 91.216 62.693 85.328 62.693 79.952V65.36C62.693 57.168 66.917 51.792 72.421 51.792C73.573 51.792 74.469 52.176 75.237 52.176C78.181 52.176 79.205 50 79.205 46.928H84.837C85.093 48.464 85.093 49.616 85.093 50.896ZM75.109 82.768V63.824C75.109 61.776 74.085 60.24 72.421 60.24C70.757 60.24 69.733 61.776 69.733 63.824V82.768C69.733 84.816 70.757 86.352 72.421 86.352C74.085 86.352 75.109 84.816 75.109 82.768ZM76.261 124.88V115.28C76.261 113.104 75.109 110.8 72.805 110.8C70.501 110.8 69.605 112.976 69.605 115.28V124.88C69.605 127.056 70.757 129.232 72.805 129.232C74.981 129.232 76.261 127.056 76.261 124.88Z" fill="#BD4F18"/>
<path d="M114.248 100.304C114.248 109.392 110.408 115.024 104.648 115.024C98.376 115.024 94.792 110.288 94.792 100.944V95.568H101.32V102.736C101.32 105.424 102.088 107.088 104.136 107.088C106.312 107.088 107.464 105.424 107.464 102.48C107.464 96.464 107.08 94.416 102.216 85.84C98.888 80.336 94.792 73.68 94.792 66.256C94.792 57.168 98.888 51.792 104.392 51.792C111.048 51.792 113.992 57.552 113.992 65.744V72.144H107.72L107.72 64.336C107.72 62.032 106.568 60.24 104.648 60.24C102.728 60.24 101.576 62.288 101.576 64.592C101.576 69.968 103.496 73.808 107.464 80.464C110.92 86.608 114.248 92.496 114.248 100.304ZM136.873 61.648H131.753V97.104C131.753 103.888 132.137 109.136 133.417 114H124.457C123.049 109.648 122.281 104.912 122.281 97.104L122.281 61.648L117.929 61.648V52.816L122.921 52.816V43.216L131.753 40.144V52.816H136.873V61.648ZM168.241 66C157.617 64.464 153.905 68.176 153.905 73.68V114L140.465 114V52.56H151.857L152.753 63.056C155.185 53.84 160.689 50.512 168.241 52.048V66ZM221.167 93.392C221.167 107.088 210.799 115.024 196.079 115.024C180.591 115.024 170.095 105.296 170.095 91.216V75.472C170.095 61.52 180.335 51.408 195.951 51.408C211.695 51.408 221.167 61.392 221.167 75.344V85.072H186.863V93.648C186.863 99.024 190.319 102.864 197.103 102.864C203.375 102.864 206.447 99.28 206.447 94.8V92.496H221.167V93.392ZM205.295 78.544V72.272C205.295 67.408 201.711 63.696 196.079 63.696C190.447 63.696 186.863 67.28 186.863 72.272V78.544H205.295ZM265.664 66.512H252.864V95.44C252.864 102.736 254.528 108.88 259.008 114H238.4C234.944 109.392 233.792 103.888 233.792 95.44V66.512H223.296V53.2H234.304V41.808L252.864 37.328V53.2H265.664V66.512ZM330.7 100.432C324.684 110.16 314.828 115.28 300.492 115.28C280.012 115.28 265.676 103.12 265.676 86.096V80.848C265.676 63.824 280.524 51.28 300.62 51.28C315.468 51.28 325.708 56.912 330.7 66.512L318.284 73.168C314.828 67.92 309.836 64.72 302.54 64.72C292.684 64.72 286.284 70.864 286.284 80.08V86.48C286.284 96.08 292.94 101.84 302.54 101.84C309.708 101.84 314.828 98.64 318.412 93.392L330.7 100.432ZM407.388 114H384.732V76.752C384.732 69.456 381.276 65.104 373.98 65.104C364.764 65.104 357.468 73.296 357.468 83.152V114H335.196V28.752L357.468 28.752V64.72C363.484 55.76 373.212 51.28 385.5 51.28C400.22 51.28 407.388 60.752 407.388 74.192V114Z" fill="#88B9EF"/>
</svg>
