<svg width="312" height="110" viewBox="0 0 312 110" fill="none" xmlns="http://www.w3.org/2000/svg">
<path d="M16.2 77.168C16.2 82.928 14.0346 87.024 10.9833 87.024C9.21167 87.024 7.44 85.488 6.55416 82.032L6.25888 86H0.943848V0.752014H6.55416V28.784C7.34157 25.712 9.11325 23.792 10.9833 23.792C14.0346 23.792 16.2 27.888 16.2 33.776V77.168ZM10.5896 75.248V35.696C10.5896 33.52 9.80223 31.984 8.52269 31.984C7.34157 31.984 6.55416 33.52 6.55416 35.696V75.248C6.55416 77.424 7.34157 78.96 8.52269 78.96C9.80223 78.96 10.5896 77.424 10.5896 75.248Z" fill="#FFFFFF"/>
<path d="M24.7869 17.52H19.7671V7.53601H24.7869V17.52ZM25.0822 86H19.4719V24.56H25.0822V86Z" fill="#FFFFFF"/>
<path d="M33.9913 17.52H28.9716V7.53601H33.9913V17.52ZM34.2866 86H28.6763V24.56H34.2866V86Z" fill="#FFFFFF"/>
<path d="M43.1957 17.52H38.176V7.53601H43.1957V17.52ZM43.491 86H37.8807V24.56H43.491V86Z" fill="#FFFFFF"/>
<path d="M64.1129 22.896C64.1129 27.12 63.0302 29.04 61.1601 29.04C60.668 29.04 60.1758 28.784 59.6837 28.528C61.2585 31.216 61.8491 34.288 61.8491 37.872V52.464C61.8491 60.528 58.5026 66.672 54.3687 66.672C54.0734 66.672 53.4828 66.544 53.3844 66.416C52.3017 66.416 51.5143 68.336 51.5143 70.64C51.5143 73.072 52.4001 74.992 54.4671 74.992C59.3884 74.992 62.5381 79.088 62.5381 87.152V95.856C62.5381 105.328 59.29 109.296 54.3687 109.296C49.6442 109.296 46.593 104.944 46.593 95.856V88.176C46.593 84.464 47.6757 81.904 49.1521 80.24C47.6757 79.216 46.2977 76.016 46.2977 72.944C46.2977 68.848 48.1678 65.264 50.6285 64.752C47.6757 63.216 46.8883 57.328 46.8883 51.952V37.36C46.8883 29.168 50.1363 23.792 54.3687 23.792C55.2545 23.792 55.9435 24.176 56.534 24.176C58.7979 24.176 59.5853 22 59.5853 18.928H63.916C64.1129 20.464 64.1129 21.616 64.1129 22.896ZM56.4356 54.768V35.824C56.4356 33.776 55.6482 32.24 54.3687 32.24C53.0891 32.24 52.3017 33.776 52.3017 35.824V54.768C52.3017 56.816 53.0891 58.352 54.3687 58.352C55.6482 58.352 56.4356 56.816 56.4356 54.768ZM57.3215 96.88V87.28C57.3215 85.104 56.4356 82.8 54.6639 82.8C52.8923 82.8 52.2033 84.976 52.2033 87.28V96.88C52.2033 99.056 53.0891 101.232 54.6639 101.232C56.3372 101.232 57.3215 99.056 57.3215 96.88Z" fill="#FFFFFF"/>
<path d="M86.5321 72.304C86.5321 81.392 83.5793 87.024 79.1501 87.024C74.3272 87.024 71.5713 82.288 71.5713 72.944V67.568H76.591V74.736C76.591 77.424 77.1816 79.088 78.7564 79.088C80.4297 79.088 81.3155 77.424 81.3155 74.48C81.3155 68.464 81.0202 66.416 77.28 57.84C74.7209 52.336 71.5713 45.68 71.5713 38.256C71.5713 29.168 74.7209 23.792 78.9533 23.792C84.0715 23.792 86.3353 29.552 86.3353 37.744V44.144H81.5124V36.336C81.5124 34.032 80.6265 32.24 79.1501 32.24C77.6737 32.24 76.7879 34.288 76.7879 36.592C76.7879 41.968 78.2643 45.808 81.3155 52.464C83.973 58.608 86.5321 64.496 86.5321 72.304Z" fill="#88B9EF"/>
<path d="M103.93 33.648H99.9927V69.104C99.9927 75.888 100.288 81.136 101.272 86H94.3824C93.2997 81.648 92.7091 76.912 92.7091 69.104V33.648H89.3626V24.816H93.2013V15.216L99.9927 12.144V24.816H103.93V33.648Z" fill="#88B9EF"/>
<path d="M128.05 38C119.881 36.464 117.027 40.176 117.027 45.68V86L106.692 86V24.56H115.452L116.141 35.056C118.011 25.84 122.243 22.512 128.05 24.048V38Z" fill="#88B9EF"/>
<path d="M168.748 65.392C168.748 79.088 160.776 87.024 149.457 87.024C137.547 87.024 129.476 77.296 129.476 63.216V47.472C129.476 33.52 137.35 23.408 149.358 23.408C161.465 23.408 168.748 33.392 168.748 47.344V57.072H142.37V65.648C142.37 71.024 145.027 74.864 150.244 74.864C155.067 74.864 157.429 71.28 157.429 66.8V64.496H168.748V65.392ZM156.543 50.544V44.272C156.543 39.408 153.787 35.696 149.457 35.696C145.126 35.696 142.37 39.28 142.37 44.272V50.544H156.543Z" fill="#88B9EF"/>
<path d="M202.964 38.512H193.122V67.44C193.122 74.736 194.401 80.88 197.846 86H182C179.342 81.392 178.456 75.888 178.456 67.44V38.512H170.385V25.2L178.85 25.2V13.808L193.122 9.32801V25.2L202.964 25.2V38.512Z" fill="#88B9EF"/>
<path d="M252.974 72.432C248.348 82.16 240.769 87.28 229.746 87.28C213.997 87.28 202.974 75.12 202.974 58.096V52.848C202.974 35.824 214.391 23.28 229.844 23.28C241.262 23.28 249.136 28.912 252.974 38.512L243.427 45.168C240.769 39.92 236.931 36.72 231.321 36.72C223.742 36.72 218.82 42.864 218.82 52.08V58.48C218.82 68.08 223.939 73.84 231.321 73.84C236.832 73.84 240.769 70.64 243.525 65.392L252.974 72.432Z" fill="#88B9EF"/>
<path d="M311.944 86L294.523 86V48.752C294.523 41.456 291.865 37.104 286.255 37.104C279.168 37.104 273.558 45.296 273.558 55.152V86H256.432V0.752014L273.558 0.752014V36.72C278.184 27.76 285.664 23.28 295.113 23.28C306.432 23.28 311.944 32.752 311.944 46.192V86Z" fill="#88B9EF"/>
</svg>
